<?xml version="1.0" encoding="UTF-8" standalone="no"?><!DOCTYPE svg PUBLIC "-//W3C//DTD SVG 1.1//EN" "http://www.w3.org/Graphics/SVG/1.1/DTD/svg11.dtd"><svg width="100%" height="100%" viewBox="0 0 943 1770" version="1.1" xmlns="http://www.w3.org/2000/svg" xmlns:xlink="http://www.w3.org/1999/xlink" xml:space="preserve" xmlns:serif="http://www.serif.com/" style="fill-rule:evenodd;clip-rule:evenodd;stroke-linecap:round;stroke-linejoin:round;stroke-miterlimit:1.5;"><rect id="Artboard1" x="0" y="0" width="942.135" height="1769.88" style="fill:none;"/><g id="Artboard11" serif:id="Artboard1"><path id="Palm" d="M391.155,1039.56c-21.108,-0.007 -38.223,-0.032 -38.223,-0.085c0,-46.428 -80.387,-96.037 -115.911,-131.561c-35.524,-35.524 -211.837,-156.026 -211.837,-343.626c-0,-187.601 68.469,-251.806 150.189,-215.935c81.719,35.871 -40.898,154.552 82.393,261.105c123.292,106.554 142.277,136.149 111.096,218.014c-31.182,81.866 81.195,179.123 100.577,196.353l0,15.65c0.038,0.034 -16.022,0.062 -36.416,0.076" style="fill:#fbff0f;stroke:#000;stroke-width:8.33px;"/><g id="TMD"><path d="M411.816,1046.37c0,-12.443 -10.101,-22.545 -22.544,-22.545l-45.088,0c-12.442,0 -22.544,10.102 -22.544,22.545l0,678.751c0,12.442 10.102,22.544 22.544,22.544l45.088,-0c12.443,-0 22.544,-10.102 22.544,-22.544l0,-678.751Z" style="fill:#e381ef;stroke:#000;stroke-width:8.33px;"/><path d="M501.993,1046.37c-0,-12.443 -10.102,-22.544 -22.544,-22.544l-45.089,-0c-12.442,-0 -22.544,10.101 -22.544,22.544l0,678.751c0,12.442 10.102,22.544 22.544,22.544l45.089,-0c12.442,-0 22.544,-10.102 22.544,-22.544l-0,-678.751Z" style="fill:#e381ef;stroke:#000;stroke-width:8.33px;"/></g><circle id="Beta-ball" cx="335.34" cy="495.157" r="123.164" style="fill:#ffa920;stroke:#000;stroke-width:8.33px;"/><path id="Thumb" d="M446.795,956.146c96.109,48.267 164.817,-34.186 257.188,-232.379c92.371,-198.193 123.142,-313.301 44.944,-371.669c-78.198,-58.368 -152.094,79.944 -192.791,110.873c-40.698,30.929 -159.374,117.935 -153.562,275.473c5.812,157.537 -51.888,169.436 44.221,217.702Z" style="fill:#2cba41;stroke:#000;stroke-width:8.33px;"/><circle id="Knuckle" cx="148.782" cy="231.059" r="98.209" style="fill:#e75f8a;stroke:#000;stroke-width:8.33px;"/><path id="Finger" d="M375.528,357.674c94.412,35.279 87.108,68.752 138.999,68.752c51.892,0 94.874,-65.995 99.035,-108.04c4.16,-42.045 -20.588,-65.234 2.464,-111.153c23.052,-45.918 77.993,-45.936 94.277,-93.766c16.284,-47.831 15.128,-74.505 -11.155,-91.213c-26.284,-16.708 -93.395,8.951 -111.625,43.454c-18.231,34.503 8.318,75.129 -36.424,98.214c-44.741,23.085 -254.805,-1.587 -303.787,130.936c-69.442,187.876 0.104,14.944 128.216,62.816Z" style="fill:#297fff;stroke:#000;stroke-width:8.33px;"/><path id="GRIP" d="M871.173,431.771c44.611,-2.431 74.401,-39.942 58.983,-91.735c-15.419,-51.793 -56.251,-44.111 -96.305,-126.948c-40.054,-82.836 -163.783,-68.779 -194.764,-12.876c-30.982,55.904 -8.617,126.012 2.296,134.172c10.912,8.159 63.433,-28.098 98.032,-13.003c34.598,15.096 56.352,45.721 62.94,80.762c6.589,35.04 24.208,32.059 68.818,29.628Z" style="fill:#70dfea;stroke:#000;stroke-width:8.33px;"/><rect x="366.855" y="1269.55" width="85.858" height="232.389" style="fill:#e381ef;"/><g transform="matrix(6.12323e-17,-1,1,6.12323e-17,-6125.53,1642.81)"><g transform="matrix(83.3333,0,0,83.3333,357.421,6569.92)"></g><text x="161.171px" y="6569.92px" style="font-family:'Montserrat-Regular', 'Montserrat';font-size:83.333px;">TMD</text></g><g transform="matrix(83.3333,0,0,83.3333,292.219,722.229)"></g><text x="73.636px" y="722.229px" style="font-family:'Montserrat-Regular', 'Montserrat';font-size:83.333px;">P<tspan x="132.219px " y="722.229px ">a</tspan>lm</text><g transform="matrix(0.5,-0.866025,0.866025,0.5,-3986.61,-3058.38)"><g transform="matrix(83.3333,0,0,83.3333,-751.031,5843.15)"></g><text x="-1056.11px" y="5843.15px" style="font-family:'Montserrat-Regular', 'Montserrat';font-size:83.333px;">Thumb</text></g><g transform="matrix(83.3333,0,0,83.3333,579.747,310.753)"></g><text x="307.414px" y="310.753px" style="font-family:'Montserrat-Regular', 'Montserrat';font-size:83.333px;">Finger</text><g transform="matrix(0.794564,0.60718,-0.60718,0.794564,-1953.36,-929.731)"><g transform="matrix(83.3333,0,0,83.3333,3010.24,-665.766)"></g><text x="2800.58px" y="-665.766px" style="font-family:'Montserrat-Regular', 'Montserrat';font-size:83.333px;">GRIP</text></g><g transform="matrix(3.87676,-2.31296e-16,2.31296e-16,3.87676,-2139.64,-2211.99)"><text x="631.85px" y="692.781px" style="font-family:'Helvetica';font-size:21.496px;">β</text><g transform="matrix(21.4956,0,0,21.4956,657.793,714.277)"></g><text x="619.037px" y="714.277px" style="font-family:'Montserrat-Regular', 'Montserrat';font-size:21.496px;">ball</text></g><g transform="matrix(42.8306,0,0,42.8306,234.657,243.077)"></g><text x="59.994px" y="243.077px" style="font-family:'Montserrat-Regular', 'Montserrat';font-size:42.831px;">K<tspan x="90.018px " y="243.077px ">n</tspan>uc<tspan x="171.525px " y="243.077px ">k</tspan>le</text></g></svg>