<?xml version="1.0" encoding="UTF-8"?>
<!-- Generator: Adobe Illustrator 27.0.0, SVG Export Plug-In . SVG Version: 6.00 Build 0)  -->
<svg version="1.1" id="Слой_1" xmlns="http://www.w3.org/2000/svg" xmlns:xlink="http://www.w3.org/1999/xlink" x="0px" y="0px" viewBox="0 0 529.21 370.11" style="enable-background:new 0 0 529.21 370.11;" xml:space="preserve">
<style type="text/css">
	.st0{fill:none;}
</style>
<g>
	<rect x="124.51" y="316.43" transform="matrix(0.866 -0.5001 0.5001 0.866 -139.0972 116.2439)" width="45.63" height="2.4"/>
	<path d="M35.03,328.2c-2.12-1.26-4.5-1.89-7.15-1.89c-4.04,0-7.33,1.34-9.88,4.04c-2.55,2.69-3.83,6.41-3.83,11.16   c0,2.52,0.55,4.9,1.64,7.15c1.09,2.25,2.7,4.03,4.82,5.33c2.12,1.3,4.53,1.95,7.23,1.95c2.49,0,4.8-0.59,6.95-1.77   c2.15-1.18,3.81-2.91,4.98-5.21c1.17-2.29,1.76-4.89,1.76-7.79c0-2.86-0.55-5.43-1.67-7.68C38.77,331.23,37.16,329.47,35.03,328.2z    M34.89,349.69c-1.84,2.01-4.19,3.01-7.04,3.01c-2.8,0-5.12-0.99-6.98-2.98c-1.86-1.99-2.79-4.7-2.79-8.16   c0-4.31,0.97-7.39,2.9-9.23c1.93-1.84,4.24-2.77,6.92-2.77c1.89,0,3.59,0.48,5.11,1.44c1.52,0.96,2.67,2.3,3.46,4.04   c0.79,1.74,1.18,3.77,1.18,6.1C37.65,344.84,36.73,347.68,34.89,349.69z"/>
	<polygon points="140,140.35 154.88,140.35 154.88,153.85 158.67,153.85 158.67,125.22 154.88,125.22 154.88,136.98 140,136.98    140,125.22 136.21,125.22 136.21,153.85 140,153.85  "/>
	<path d="M170.29,152.39c2.12,1.3,4.53,1.95,7.23,1.95c2.48,0,4.8-0.59,6.95-1.77s3.81-2.91,4.98-5.21s1.76-4.89,1.76-7.79   c0-2.87-0.56-5.43-1.67-7.69s-2.73-4.02-4.85-5.28c-2.12-1.26-4.51-1.89-7.15-1.89c-4.04,0-7.33,1.34-9.88,4.03   c-2.55,2.69-3.83,6.41-3.83,11.16c0,2.51,0.55,4.9,1.64,7.15S168.16,151.08,170.29,152.39z M170.63,130.74   c1.93-1.84,4.24-2.76,6.93-2.76c1.89,0,3.59,0.48,5.11,1.44c1.52,0.96,2.67,2.3,3.46,4.04c0.79,1.74,1.18,3.77,1.18,6.1   c0,3.69-0.92,6.53-2.77,8.54c-1.84,2.01-4.19,3.01-7.04,3.01c-2.8,0-5.13-0.99-6.98-2.98s-2.78-4.7-2.78-8.15   C167.73,135.65,168.7,132.58,170.63,130.74z"/>
	<path d="M267.46,99.28c2.12,1.3,4.53,1.95,7.23,1.95c2.49,0,4.8-0.59,6.95-1.77s3.81-2.91,4.98-5.21s1.76-4.89,1.76-7.79   c0-2.87-0.55-5.43-1.67-7.69s-2.73-4.02-4.86-5.28c-2.12-1.26-4.5-1.89-7.15-1.89c-4.04,0-7.33,1.34-9.88,4.03   c-2.55,2.69-3.83,6.41-3.83,11.16c0,2.51,0.55,4.9,1.64,7.15S265.34,97.97,267.46,99.28z M267.81,77.63   c1.93-1.84,4.24-2.76,6.92-2.76c1.89,0,3.59,0.48,5.11,1.44c1.52,0.96,2.67,2.3,3.46,4.04c0.79,1.74,1.18,3.77,1.18,6.1   c0,3.69-0.92,6.53-2.76,8.54c-1.84,2.01-4.19,3.01-7.04,3.01c-2.8,0-5.12-0.99-6.98-2.98s-2.79-4.7-2.79-8.15   C264.9,82.54,265.87,79.47,267.81,77.63z"/>
	<rect x="302.17" y="93.46" transform="matrix(0.5 -0.866 0.866 0.5 57.3954 317.1699)" width="2.4" height="30.85"/>
	<path d="M353.98,65.8c2.12,1.3,4.53,1.95,7.23,1.95c2.48,0,4.8-0.59,6.95-1.77s3.81-2.91,4.98-5.21s1.76-4.89,1.76-7.79   c0-2.87-0.56-5.43-1.67-7.69s-2.73-4.02-4.85-5.28c-2.12-1.26-4.51-1.89-7.15-1.89c-4.04,0-7.33,1.34-9.88,4.03   c-2.55,2.69-3.83,6.41-3.83,11.16c0,2.51,0.55,4.9,1.64,7.15S351.85,64.5,353.98,65.8z M354.32,44.15   c1.93-1.84,4.24-2.76,6.93-2.76c1.89,0,3.59,0.48,5.11,1.44c1.52,0.96,2.67,2.3,3.46,4.04c0.79,1.74,1.18,3.77,1.18,6.1   c0,3.69-0.92,6.53-2.77,8.54c-1.84,2.01-4.19,3.01-7.04,3.01c-2.8,0-5.13-0.99-6.98-2.98s-2.78-4.7-2.78-8.15   C351.42,49.07,352.38,45.99,354.32,44.15z"/>
	<path d="M481.05,16.07c-2.12-1.26-4.5-1.89-7.15-1.89c-4.04,0-7.33,1.34-9.88,4.03c-2.55,2.69-3.83,6.41-3.83,11.16   c0,2.51,0.55,4.9,1.64,7.15s2.7,4.03,4.82,5.33c2.12,1.3,4.53,1.95,7.23,1.95c2.49,0,4.8-0.59,6.95-1.77s3.81-2.91,4.98-5.21   s1.76-4.89,1.76-7.79c0-2.87-0.55-5.43-1.67-7.69S483.18,17.33,481.05,16.07z M480.91,37.55c-1.84,2.01-4.19,3.01-7.04,3.01   c-2.8,0-5.12-0.99-6.98-2.98s-2.79-4.7-2.79-8.15c0-4.31,0.97-7.39,2.9-9.23s4.24-2.76,6.92-2.76c1.89,0,3.59,0.48,5.11,1.44   c1.52,0.96,2.67,2.3,3.46,4.04c0.79,1.74,1.18,3.77,1.18,6.1C483.67,32.7,482.75,35.55,480.91,37.55z"/>
	<polygon points="511.25,14.68 511.25,26.44 496.36,26.44 496.36,14.68 492.57,14.68 492.57,43.31 496.36,43.31 496.36,29.82    511.25,29.82 511.25,43.31 515.04,43.31 515.04,14.68  "/>
	<path d="M455.09,82.62l-49.13,10.44l-25.92-28.78l-1.78,1.61l24.99,27.75l-9,1.91l-21.91-24.33l-1.78,1.61l22.47,24.96   l-12.16,51.69l-52.43,17.04l4.49-53.92l-37.13-21.44l-1.2,2.08l26.32,15.19l4.8,57.6l-48.5-28l-49.8,28.75l-28.98-22.18l-6,10.39   l33.7,14.01v56.12l-47.3,27.31l4.62-55.42h-12l4.62,55.42l-48.5-28l-51.08,29.49v51.61l-33.92,19.59l1.2,2.08l32.72-18.89v4.6   l3.98,2.3l-32.73,18.89l1.2,2.08l33.92-19.59l44.7,25.81l49.88-28.8l49.88,28.8l51.08-29.49v-57.6l48.82-28.19l55.1,17.9   l34.88-48.01l-33.97-46.76l22.99-54.79l50.71-10.78l11.41-35.13l-2.28-0.74L455.09,82.62z M127.56,339.62l-48.68-28.11V255.3   l48.68-28.11l48.68,28.11v56.21L127.56,339.62z M227.33,339.62l-48.68-28.11V255.3l48.68-28.11l48.68,28.11v56.21L227.33,339.62z    M278.7,252.36l4.51-34.64h-12l4.51,34.64l-47.19-27.25V168.9l48.68-28.11l48.68,28.11v56.21L278.7,252.36z M414.25,197.01   l-32.83,45.19l-53.12-17.26v-55.86l53.12-17.26L414.25,197.01z"/>
	<polygon points="334.53,280.98 319.65,280.98 319.65,269.22 315.86,269.22 315.86,297.85 319.65,297.85 319.65,284.36    334.53,284.36 334.53,297.85 338.32,297.85 338.32,269.22 334.53,269.22  "/>
	<polygon points="321.09,262.72 333.09,262.72 332.67,260.32 321.52,260.32  "/>
	<polygon points="323.28,250.48 330.91,250.48 330.48,248.08 323.71,248.08  "/>
	<polygon points="325.89,235.84 325.47,238.24 328.72,238.24 328.29,235.84  "/>
	<polygon points="284.65,194.58 269.76,194.58 269.76,182.82 265.97,182.82 265.97,211.45 269.76,211.45 269.76,197.95    284.65,197.95 284.65,211.45 288.43,211.45 288.43,182.82 284.65,182.82  "/>
	<polygon points="234.76,280.98 219.88,280.98 219.88,269.22 216.09,269.22 216.09,297.85 219.88,297.85 219.88,284.36    234.76,284.36 234.76,297.85 238.55,297.85 238.55,269.22 234.76,269.22  "/>
	<polygon points="232.9,260.32 221.76,260.32 221.33,262.72 233.33,262.72  "/>
	<polygon points="230.71,248.08 223.94,248.08 223.51,250.48 231.14,250.48  "/>
	<polygon points="228.53,235.84 226.13,235.84 225.7,238.24 228.96,238.24  "/>
</g>
</svg>