<?xml version="1.0" encoding="UTF-8"?>
<!-- Generator: Adobe Illustrator 18.0.0, SVG Export Plug-In . SVG Version: 6.00 Build 0)  -->
<!DOCTYPE svg PUBLIC "-//W3C//DTD SVG 1.1//EN" "http://www.w3.org/Graphics/SVG/1.1/DTD/svg11.dtd">
<svg version="1.1" id="Слой_1" xmlns="http://www.w3.org/2000/svg" xmlns:xlink="http://www.w3.org/1999/xlink" x="0px" y="0px" viewBox="0 0 479.4 228" enable-background="new 0 0 479.4 228" xml:space="preserve">
<g>
	<rect x="324.1" y="170" transform="matrix(0.866 -0.5 0.5 0.866 -40.0379 193.0132)" width="32.1" height="2.4"/>
	<path d="M365.6,112.3l29.2-16.9l-1.2-2.1l-29.2,16.9L332,91.5l-1.2,2.1l32.4,18.7v56.2l-32.4,18.7l1.2,2.1l32.4-18.7l32.4,18.7   l1.2-2.1l-32.4-18.7V112.3z M364.4,111.6L364.4,111.6L364.4,111.6L364.4,111.6z"/>
	<rect x="273.8" y="117.6" width="2.4" height="45.6"/>
	<rect x="338.9" y="93.5" transform="matrix(-0.4996 0.8663 -0.8663 -0.4996 604.9789 -130.3807)" width="2.4" height="32.1"/>
	<path d="M297,91.5l-32.4,18.7l-43.5-25.1V46.2h-2.4v37.5l-1.7-1l-1.7-1l-0.6-0.3l-0.6,0.3l-3.4,2V46.2h-2.4v38.9l-27.2,15.7   l1.2,2.1l32.4-18.7l1.1,0.7l47.6,27.5v56.2l-32.4,18.7l1.2,2.1l32.4-18.7l32.4,18.7l1.2-2.1l-32.4-18.7v-56.2l32.4-18.7L297,91.5z    M264.6,111.6L264.6,111.6L264.6,111.6L264.6,111.6z"/>
	<polygon points="116.2,45.2 113.8,45.2 113.8,80.8 113.8,82.1 112.7,82.7 112.7,82.7 81.4,100.8 82.6,102.9 109.8,87.2    144.8,107.3 146,105.3 112.2,85.8 115.6,83.8 116.2,83.5 116.2,82.8 116.2,80.8 116.2,78.9 149.9,98.4 151.1,96.3 116.2,76.1  "/>
	<polygon points="322.3,206.2 322.2,206.2 307.2,183.1 303.1,183.1 303.1,211.6 306.7,211.6 306.7,188.7 306.8,188.7 321.7,211.6    325.9,211.6 325.9,183.1 322.3,183.1  "/>
	<polygon points="422.1,206.2 422,206.2 406.9,183.1 402.9,183.1 402.9,211.6 406.5,211.6 406.5,188.7 406.6,188.7 421.5,211.6    425.7,211.6 425.7,183.1 422.1,183.1  "/>
	<polygon points="448.5,195.3 433.5,195.3 433.5,183.1 429.7,183.1 429.7,211.6 433.5,211.6 433.5,198.5 448.5,198.5 448.5,211.6    452.3,211.6 452.3,183.1 448.5,183.1  "/>
	<path d="M459.8,214.4c0.4-0.5,0.8-0.9,1.3-1.3c0.5-0.4,1.1-0.8,1.7-1.2c0.6-0.4,1.2-0.7,1.8-1.1c0.6-0.4,1.2-0.8,1.8-1.2   c0.6-0.4,1.1-0.9,1.5-1.4c0.4-0.5,0.8-1.1,1.1-1.8c0.3-0.7,0.4-1.4,0.4-2.3c0-0.9-0.2-1.8-0.5-2.5c-0.3-0.7-0.8-1.3-1.3-1.8   c-0.6-0.5-1.2-0.8-2-1.1c-0.8-0.3-1.6-0.4-2.4-0.4c-1,0-2,0.2-2.8,0.5c-0.8,0.4-1.5,0.8-2.1,1.5c-0.6,0.6-1,1.4-1.2,2.2   c-0.3,0.9-0.4,1.8-0.3,2.8h2.4c0-0.6,0-1.2,0.2-1.8c0.1-0.6,0.4-1.1,0.7-1.6c0.3-0.5,0.7-0.8,1.2-1.1c0.5-0.3,1.1-0.4,1.8-0.4   c0.5,0,1,0.1,1.5,0.3c0.5,0.2,0.9,0.4,1.2,0.7c0.3,0.3,0.6,0.7,0.8,1.1s0.3,0.9,0.3,1.5c0,0.7-0.1,1.3-0.3,1.8   c-0.2,0.5-0.5,1-1,1.5c-0.4,0.4-0.9,0.9-1.6,1.3c-0.6,0.4-1.4,0.9-2.2,1.4c-0.7,0.4-1.4,0.8-2,1.3c-0.6,0.5-1.2,1-1.7,1.6   s-0.9,1.3-1.2,2.2s-0.5,1.8-0.6,3h13V216h-10.2C459.2,215.4,459.4,214.8,459.8,214.4z"/>
	<polygon points="222.5,206.2 222.5,206.2 207.4,183.1 203.4,183.1 203.4,211.6 207,211.6 207,188.7 207.1,188.7 222,211.6    226.1,211.6 226.1,183.1 222.5,183.1  "/>
	<polygon points="178.4,195.3 163.4,195.3 163.4,183.1 159.6,183.1 159.6,211.6 163.4,211.6 163.4,198.5 178.4,198.5 178.4,211.6    182.2,211.6 182.2,183.1 178.4,183.1  "/>
	<path d="M191,213c0.5-0.4,1.1-0.8,1.7-1.2c0.6-0.4,1.2-0.7,1.8-1.1c0.6-0.4,1.2-0.8,1.8-1.2c0.6-0.4,1.1-0.9,1.5-1.4   c0.4-0.5,0.8-1.1,1.1-1.8c0.3-0.7,0.4-1.4,0.4-2.3c0-0.9-0.2-1.8-0.5-2.5s-0.8-1.3-1.3-1.8c-0.6-0.5-1.2-0.8-2-1.1   c-0.8-0.3-1.6-0.4-2.4-0.4c-1,0-2,0.2-2.8,0.5c-0.8,0.4-1.5,0.8-2.1,1.5c-0.6,0.6-1,1.4-1.2,2.2s-0.4,1.8-0.3,2.8h2.4   c0-0.6,0-1.2,0.2-1.8c0.1-0.6,0.4-1.1,0.7-1.6c0.3-0.5,0.7-0.8,1.2-1.1s1.1-0.4,1.8-0.4c0.5,0,1,0.1,1.5,0.3   c0.5,0.2,0.9,0.4,1.2,0.7c0.3,0.3,0.6,0.7,0.8,1.1s0.3,0.9,0.3,1.5c0,0.7-0.1,1.3-0.3,1.8c-0.2,0.5-0.5,1-1,1.5   c-0.4,0.4-0.9,0.9-1.6,1.3c-0.6,0.4-1.4,0.9-2.2,1.4c-0.7,0.4-1.4,0.8-2,1.3c-0.6,0.5-1.2,1-1.7,1.6s-0.9,1.3-1.2,2.2   c-0.3,0.8-0.5,1.8-0.6,3h13V216H189c0.1-0.6,0.4-1.2,0.7-1.6C190.1,213.9,190.5,213.4,191,213z"/>
	<path d="M411.3,97.4c3.7,0,6.5-1,8.6-3s3.3-4.8,3.7-8.4h-3.8c-0.1,1.2-0.3,2.3-0.7,3.3c-0.4,1-1,1.9-1.7,2.6   c-0.7,0.7-1.5,1.3-2.5,1.7c-1,0.4-2.1,0.6-3.3,0.6c-1.7,0-3.2-0.3-4.4-1c-1.2-0.6-2.2-1.5-3-2.6c-0.8-1.1-1.4-2.3-1.7-3.8   s-0.6-3-0.6-4.6c0-1.5,0.2-2.9,0.6-4.3c0.4-1.4,1-2.6,1.7-3.7c0.8-1.1,1.8-1.9,3-2.6c1.2-0.6,2.7-1,4.4-1c2,0,3.7,0.5,5.2,1.5   s2.4,2.5,2.8,4.6h3.8c-0.2-1.5-0.7-2.9-1.4-4c-0.7-1.2-1.6-2.1-2.6-2.9c-1-0.8-2.2-1.4-3.6-1.8c-1.3-0.4-2.7-0.6-4.2-0.6   c-2.2,0-4.1,0.4-5.8,1.2c-1.7,0.8-3.1,1.9-4.2,3.2c-1.1,1.4-2,3-2.6,4.8c-0.6,1.8-0.9,3.8-0.9,5.9c0,2.1,0.3,4,0.8,5.8   s1.4,3.4,2.5,4.7c1.1,1.3,2.5,2.4,4.1,3.1C407.1,97,409.1,97.4,411.3,97.4z"/>
	<rect x="427.1" y="68.2" width="3.4" height="28.6"/>
	<polygon points="306.7,73.5 306.8,73.5 321.7,96.4 325.9,96.4 325.9,67.9 322.3,67.9 322.3,91 322.2,91 307.2,67.9 303.1,67.9    303.1,96.4 306.7,96.4  "/>
	<polygon points="176.3,125.2 176.3,96.7 172.7,96.7 172.7,119.8 172.6,119.8 157.5,96.7 153.5,96.7 153.5,125.2 157.1,125.2    157.1,102.3 157.2,102.3 172.1,125.2  "/>
	<path d="M204.5,35.3c1.1,1.4,2.6,2.5,4.3,3.3c1.7,0.8,3.7,1.2,6,1.2c2.3,0,4.3-0.4,6-1.2c1.7-0.8,3.1-1.9,4.3-3.3   c1.1-1.4,2-3,2.6-4.8c0.6-1.8,0.9-3.7,0.9-5.6s-0.3-3.8-0.9-5.6c-0.6-1.8-1.4-3.4-2.6-4.8c-1.1-1.4-2.6-2.5-4.3-3.3   c-1.7-0.8-3.7-1.2-6-1.2c-2.3,0-4.3,0.4-6,1.2c-1.7,0.8-3.1,1.9-4.3,3.3c-1.1,1.4-2,3-2.6,4.8c-0.6,1.8-0.9,3.7-0.9,5.6   s0.3,3.8,0.9,5.6C202.5,32.3,203.4,33.9,204.5,35.3z M205.4,20.6c0.4-1.4,1-2.7,1.8-3.8c0.8-1.1,1.8-2,3.1-2.7c1.3-0.7,2.7-1,4.5-1   c1.7,0,3.2,0.3,4.5,1c1.3,0.7,2.3,1.6,3.1,2.7c0.8,1.1,1.4,2.4,1.8,3.8c0.4,1.4,0.6,2.8,0.6,4.3c0,1.4-0.2,2.9-0.6,4.3   c-0.4,1.4-1,2.7-1.8,3.8c-0.8,1.1-1.8,2-3.1,2.7c-1.3,0.7-2.7,1-4.5,1c-1.7,0-3.2-0.3-4.5-1c-1.3-0.7-2.3-1.6-3.1-2.7   c-0.8-1.1-1.4-2.4-1.8-3.8s-0.6-2.8-0.6-4.3C204.9,23.4,205.1,22,205.4,20.6z"/>
	<polygon points="107.2,15.9 107.3,15.9 122.2,38.8 126.4,38.8 126.4,10.3 122.8,10.3 122.8,33.4 122.7,33.4 107.6,10.3 103.6,10.3    103.6,38.8 107.2,38.8  "/>
	<polygon points="149.2,22.5 134.2,22.5 134.2,10.3 130.4,10.3 130.4,38.8 134.2,38.8 134.2,25.7 149.2,25.7 149.2,38.8 153,38.8    153,10.3 149.2,10.3  "/>
	<path d="M166.4,34.4c-0.4,0.4-0.9,0.9-1.6,1.3c-0.6,0.4-1.4,0.9-2.2,1.4c-0.7,0.4-1.4,0.8-2,1.3c-0.6,0.5-1.2,1-1.7,1.6   c-0.5,0.6-0.9,1.3-1.2,2.2s-0.5,1.8-0.6,3h13v-2.1h-10.2c0.1-0.6,0.3-1.2,0.7-1.6c0.4-0.5,0.8-0.9,1.3-1.3c0.5-0.4,1.1-0.8,1.7-1.2   c0.6-0.4,1.2-0.7,1.8-1.1c0.6-0.4,1.2-0.8,1.8-1.2c0.6-0.4,1.1-0.9,1.5-1.4s0.8-1.1,1.1-1.8c0.3-0.7,0.4-1.4,0.4-2.3   c0-0.9-0.2-1.8-0.5-2.5c-0.3-0.7-0.8-1.3-1.3-1.8c-0.6-0.5-1.2-0.8-2-1.1c-0.8-0.3-1.6-0.4-2.4-0.4c-1,0-2,0.2-2.8,0.5   c-0.8,0.4-1.5,0.8-2.1,1.5c-0.6,0.6-1,1.4-1.2,2.2s-0.4,1.8-0.3,2.8h2.4c0-0.6,0-1.2,0.2-1.8c0.1-0.6,0.4-1.1,0.7-1.6   c0.3-0.5,0.7-0.8,1.2-1.1c0.5-0.3,1.1-0.4,1.8-0.4c0.5,0,1,0.1,1.5,0.3s0.9,0.4,1.2,0.7c0.3,0.3,0.6,0.7,0.8,1.1   c0.2,0.4,0.3,0.9,0.3,1.5c0,0.7-0.1,1.3-0.3,1.8C167.1,33.5,166.8,34,166.4,34.4z"/>
	<polygon points="72.9,119.8 72.8,119.8 57.8,96.7 53.7,96.7 53.7,125.2 57.3,125.2 57.3,102.3 57.4,102.3 72.3,125.2 76.5,125.2    76.5,96.7 72.9,96.7  "/>
	<polygon points="28.8,108.9 13.7,108.9 13.7,96.7 9.9,96.7 9.9,125.2 13.7,125.2 13.7,112.1 28.8,112.1 28.8,125.2 32.6,125.2    32.6,96.7 28.8,96.7  "/>
	<path d="M41.4,126.6c0.5-0.4,1.1-0.8,1.7-1.2c0.6-0.4,1.2-0.7,1.8-1.1c0.6-0.4,1.2-0.8,1.8-1.2c0.6-0.4,1.1-0.9,1.5-1.4   c0.4-0.5,0.8-1.1,1.1-1.8c0.3-0.7,0.4-1.4,0.4-2.3c0-0.9-0.2-1.8-0.5-2.5c-0.3-0.7-0.8-1.3-1.3-1.8c-0.6-0.5-1.2-0.8-2-1.1   c-0.8-0.3-1.6-0.4-2.4-0.4c-1,0-2,0.2-2.8,0.5c-0.8,0.4-1.5,0.8-2.1,1.5c-0.6,0.6-1,1.4-1.2,2.2c-0.3,0.9-0.4,1.8-0.3,2.8h2.4   c0-0.6,0-1.2,0.2-1.8s0.4-1.1,0.7-1.6s0.7-0.8,1.2-1.1s1.1-0.4,1.8-0.4c0.5,0,1,0.1,1.5,0.3c0.5,0.2,0.9,0.4,1.2,0.7   c0.3,0.3,0.6,0.7,0.8,1.1c0.2,0.4,0.3,0.9,0.3,1.5c0,0.7-0.1,1.3-0.3,1.8c-0.2,0.5-0.5,1-1,1.5c-0.4,0.4-0.9,0.9-1.6,1.3   c-0.6,0.4-1.4,0.9-2.2,1.4c-0.7,0.4-1.4,0.8-2,1.3c-0.6,0.5-1.2,1-1.7,1.6c-0.5,0.6-0.9,1.3-1.2,2.2c-0.3,0.8-0.5,1.8-0.6,3h13   v-2.1H39.3c0.1-0.6,0.3-1.2,0.7-1.6C40.4,127.5,40.9,127,41.4,126.6z"/>
</g>
</svg>