<?xml version="1.0" encoding="UTF-8" standalone="no"?>
<!DOCTYPE svg PUBLIC "-//W3C//DTD SVG 1.1//EN" "http://www.w3.org/Graphics/SVG/1.1/DTD/svg11.dtd">
<svg width="100%" height="100%" viewBox="0 0 1920 1080" version="1.1" xmlns="http://www.w3.org/2000/svg" xmlns:xlink="http://www.w3.org/1999/xlink" xml:space="preserve" xmlns:serif="http://www.serif.com/" style="fill-rule:evenodd;clip-rule:evenodd;stroke-linecap:round;stroke-linejoin:round;stroke-miterlimit:1.5;">
    <g id="Bead">
        <g transform="matrix(1,0,0,1,142.061,0)">
            <circle cx="347.893" cy="606.198" r="96.391" style="stroke:black;stroke-width:5px;"/>
        </g>
        <path d="M771.094,544.549C772.07,543.573 773.654,543.573 774.63,544.549C775.605,545.524 775.605,547.108 774.63,548.084C766.077,556.636 755.881,557.842 744.183,554.903C733.251,552.155 720.93,545.683 707.433,538.661C683.882,526.409 656.632,512.402 626.671,515.152C606.84,516.973 585.862,526.202 563.981,548.084C563.005,549.06 561.421,549.06 560.445,548.084C559.469,547.108 559.469,545.524 560.445,544.549C583.376,521.617 605.431,512.081 626.214,510.173C657.174,507.331 685.404,521.564 709.74,534.225C722.847,541.044 734.786,547.386 745.402,550.053C755.253,552.529 763.892,551.751 771.094,544.549Z"/>
        <g transform="matrix(0.866025,-0.5,0.5,0.866025,-148.38,481.394)">
            <path d="M824.104,578.778C803.847,577.926 784.438,567.049 773.559,548.206C756.657,518.93 766.702,481.439 795.979,464.536C804.865,459.405 814.509,456.757 824.104,456.377L824.104,480.979C818.69,481.343 813.275,482.918 808.262,485.812C790.729,495.935 784.713,518.389 794.835,535.922C801.171,546.896 812.337,553.358 824.104,554.176L824.104,578.778Z"/>
        </g>
    </g>
</svg>
