<?xml version="1.0" encoding="UTF-8" standalone="no"?><!DOCTYPE svg PUBLIC "-//W3C//DTD SVG 1.1//EN" "http://www.w3.org/Graphics/SVG/1.1/DTD/svg11.dtd"><svg width="100%" height="100%" viewBox="0 0 1800 770" version="1.1" xmlns="http://www.w3.org/2000/svg" xmlns:xlink="http://www.w3.org/1999/xlink" xml:space="preserve" xmlns:serif="http://www.serif.com/" style="fill-rule:evenodd;clip-rule:evenodd;stroke-linejoin:round;stroke-miterlimit:2;"><g><g><path d="M535.833,710c-14.583,-183.333 -3.75,-289.167 -3.75,-289.167c-1.666,-11.666 -28.75,-17.5 -60.416,-13.333c-31.667,4.167 -56.25,17.083 -55,28.333c-0,0 43.333,126.667 74.583,309.167c15.833,-12.083 30.833,-23.75 44.583,-35Z" style="fill:#fff;fill-rule:nonzero;"/><g><path d="M1595,682.083c-2.083,2.084 -5,3.334 -7.917,3.334c-3.333,-0 -5.833,-1.25 -7.916,-3.334c-2.084,-2.083 -3.334,-5 -3.334,-7.916c0,-3.334 1.25,-5.834 3.334,-8.334c2.083,-2.083 4.583,-2.916 7.916,-2.916c2.917,-0 5.834,1.25 7.917,3.333c2.083,2.083 3.333,5 3.333,7.917c0,2.916 -1.25,5.416 -3.333,7.916m-14.583,-14.583c-1.667,1.667 -2.5,4.167 -2.5,6.667c-0,2.5 0.833,5 2.916,6.666c1.667,1.667 4.167,2.917 6.667,2.917c2.5,-0 4.583,-0.833 6.667,-2.917c1.666,-1.666 2.916,-4.166 2.916,-6.666c0,-2.5 -0.833,-4.584 -2.5,-6.667c-1.666,-1.667 -4.166,-2.917 -6.666,-2.917c-3.334,0 -5.834,0.834 -7.5,2.917m1.666,13.333l0,-13.333l5.834,0c0.833,0 1.666,0.417 2.5,0.833c1.25,0.417 1.666,1.667 1.666,2.917c0,1.25 -0.416,1.667 -0.833,2.083c-0.417,0.417 -1.25,0.834 -2.083,0.834c0.833,-0 1.25,0.416 1.666,0.833c0.834,0.417 1.25,1.667 1.25,2.917l0,2.5l-2.916,-0c-0,-0.417 -0,-0.834 -0.417,-1.667l0,-1.667c0,-0.416 -0.417,-0.833 -0.833,-0.833l-2.917,-0l0,4.583l-2.917,0Zm5.834,-10.833c-0.417,0 -1.25,-0.417 -2.084,-0.417l-0.833,0l0,3.75l1.25,0c0.833,0 1.25,0 1.667,-0.416c0.416,-0.417 0.833,-0.834 0.833,-1.667c0.417,-0.417 0,-0.833 -0.833,-1.25" style="fill:#fff;fill-rule:nonzero;"/></g><g><path d="M921.667,415.833l-34.584,0l-7.5,22.084l-17.916,-0l33.333,-90.417l19.167,0l33.333,90.417l-18.333,-0l-7.5,-22.084Zm-5,-14.166l-12.5,-35.417l-12.5,35.417l25,-0Z" style="fill:#fff;fill-rule:nonzero;"/><path d="M1054.17,379.167c3.75,4.583 5.833,11.25 5.833,20.416l0,38.75l-16.25,0l0,-36.25c0,-4.583 -0.833,-8.333 -2.917,-10.833c-2.083,-2.5 -5,-3.75 -8.75,-3.75c-6.25,0 -11.25,2.917 -15.416,9.167l-0,41.666l-16.667,0l0,-37.5c0,-4.166 -0.833,-7.5 -2.917,-9.583c-2.083,-2.5 -5,-3.75 -8.75,-3.75c-6.25,0 -11.25,2.917 -15.416,9.167l-0,41.666l-16.25,0l-0,-64.583l16.25,0l-0,8.75c5.416,-6.667 12.083,-10 20.833,-10c5,0 9.167,0.833 12.917,2.917c3.333,2.083 6.25,5 7.916,8.75c2.917,-3.75 6.25,-6.667 10,-8.75c3.75,-2.084 7.917,-3.334 13.334,-3.334c6.25,0 12.083,2.084 16.25,7.084Z" style="fill:#fff;fill-rule:nonzero;"/><path d="M1135,409.583l-48.333,0c0.416,5 2.5,8.75 5.833,11.667c3.333,2.917 7.917,4.167 13.333,4.167c3.75,-0 7.5,-0.417 10.834,-1.667c3.333,-1.25 6.25,-2.5 8.333,-4.167l5.833,11.667c-7.5,5.417 -16.25,8.333 -26.666,8.333c-7.084,0 -13.334,-1.25 -18.75,-4.166c-5.417,-2.917 -9.167,-7.084 -12.084,-12.084c-2.916,-5 -4.166,-10.833 -4.166,-17.083c-0,-6.25 1.25,-12.083 4.166,-17.083c2.917,-5 6.667,-9.167 11.667,-12.084c5,-2.916 10.833,-4.166 17.083,-4.166c6.25,-0 11.667,1.25 16.667,4.166c4.583,2.917 8.333,7.084 10.833,12.5c2.5,5.417 3.75,11.667 3.75,18.334l0,1.666l1.667,0Zm-16.667,-11.25c-0.416,-4.166 -2.083,-7.5 -5,-10c-2.5,-2.5 -5.833,-3.75 -10,-3.75c-4.166,0 -7.5,1.25 -10.833,3.75c-2.917,2.5 -5,5.834 -5.833,10l31.666,0Z" style="fill:#fff;fill-rule:nonzero;"/><path d="M1186.67,373.333l-0,15.834l-5.834,-0c-4.166,-0 -7.083,0.833 -9.583,2.083c-2.5,1.25 -4.167,3.333 -5.833,6.667l-0,40l-16.25,-0l-0,-64.584l16.25,0l-0,10.417c1.666,-3.75 4.166,-6.667 7.083,-7.917c2.917,-1.666 6.25,-2.5 10,-2.5l4.167,0Z" style="fill:#fff;fill-rule:nonzero;"/><path d="M1200,360.833c-2.083,-2.083 -2.917,-4.166 -2.917,-7.083c0,-2.917 0.834,-5 2.917,-7.083c2.083,-2.084 4.167,-2.917 7.083,-2.917c2.917,-0 5,0.833 7.084,2.917c2.083,2.083 2.916,4.166 2.916,7.083c0,2.917 -0.833,5 -2.916,7.083c-2.084,2.084 -4.167,2.917 -7.084,2.917c-2.916,0 -5.416,-0.833 -7.083,-2.917Zm-1.25,12.5l16.25,0l0,64.584l-16.25,-0l0,-64.584Z" style="fill:#fff;fill-rule:nonzero;"/><path d="M1242.92,435c-5.417,-2.917 -9.167,-6.667 -12.084,-11.667c-2.916,-5 -4.583,-10.833 -4.583,-17.083c0,-6.667 1.667,-12.5 4.583,-17.5c2.917,-5 7.084,-9.167 12.084,-12.083c5.416,-2.917 11.25,-4.167 17.5,-4.167c8.333,0 15.833,2.083 22.5,6.667l-6.667,12.916c-4.167,-2.916 -9.167,-4.583 -14.583,-4.583c-5.834,0 -10,1.667 -13.75,5c-3.334,3.333 -5,7.917 -5,13.75c-0,5.417 1.666,10 5,13.75c3.333,3.333 7.916,5 13.333,5c5.417,0 10.417,-1.667 15,-4.583l6.25,12.5c-3.75,2.5 -7.083,4.166 -10.417,5c-3.333,1.25 -7.5,1.666 -12.5,1.666c-5.416,-0.416 -11.25,-1.666 -16.666,-4.583Z" style="fill:#fff;fill-rule:nonzero;"/><path d="M1360,422.5c1.25,0.833 3.333,1.667 6.25,1.667l0,14.583l-1.25,0c-12.083,0 -19.167,-3.333 -20.833,-10c-2.917,3.333 -5.834,5.833 -10,7.917c-3.75,1.666 -8.334,2.5 -12.917,2.5c-6.25,-0 -11.667,-1.25 -16.667,-4.167c-5,-2.917 -8.75,-7.083 -11.666,-12.083c-2.917,-5 -4.167,-10.834 -4.167,-17.084c-0,-6.25 1.25,-12.083 4.167,-17.5c2.916,-5 6.666,-9.166 11.666,-12.083c5,-2.917 10.417,-4.167 16.667,-4.167c8.333,0 15,2.5 20.417,7.917l-0,-6.667l16.25,0l-0,43.75c-0,2.5 0.416,4.167 2.083,5.417Zm-18.333,-25.833c-1.667,-2.917 -4.167,-5.417 -7.084,-7.084c-2.916,-1.666 -6.666,-2.5 -10.833,-2.5c-5.417,0 -9.583,1.667 -12.917,5c-3.333,3.334 -5,7.917 -5,13.334c0,5.416 1.667,10 5,13.333c3.334,3.333 7.5,5 12.917,5c3.75,0 7.083,-0.833 10.417,-2.5c3.333,-1.667 5.833,-4.167 7.083,-7.083l0,-17.5l0.417,-0Z" style="fill:#fff;fill-rule:nonzero;"/><path d="M1434.58,379.167c4.167,4.583 6.25,11.25 6.25,20.416l0,38.75l-16.25,0l0,-36.25c0,-4.583 -1.25,-8.333 -3.333,-10.833c-2.5,-2.5 -5.833,-3.75 -10,-3.75c-6.667,0 -12.5,2.917 -17.083,9.167l-0,41.666l-16.25,0l-0,-64.583l16.25,0l-0,8.75c5.416,-6.667 12.916,-10 22.083,-10c7.917,-0.417 14.167,1.667 18.333,6.667Z" style="fill:#fff;fill-rule:nonzero;"/><path d="M942.5,470.417l0,90.416l-17.5,0l0,-37.5l-40,0l0,37.5l-17.5,0l0,-90.416l17.5,-0l0,37.5l40,-0l0,-37.5l17.5,-0Z" style="fill:#fff;fill-rule:nonzero;"/><path d="M1019.58,532.917l-48.333,-0c0.417,5 2.5,8.75 5.833,11.666c3.334,2.917 7.917,4.167 13.334,4.167c3.75,0 7.5,-0.417 10.833,-1.667c3.333,-1.25 6.25,-2.5 8.333,-4.166l5.834,11.666c-7.5,5.417 -16.25,8.334 -26.667,8.334c-7.083,-0 -13.333,-1.25 -18.75,-4.167c-5.417,-2.917 -9.167,-7.083 -12.083,-12.083c-2.917,-5 -4.167,-10.834 -4.167,-17.084c0,-6.25 1.25,-12.083 4.167,-17.083c2.916,-5 6.666,-9.167 11.666,-12.083c5,-2.917 10.834,-4.167 17.084,-4.167c6.25,0 11.666,1.25 16.666,4.167c4.584,2.916 8.334,7.083 10.834,12.5c2.5,5.416 3.75,11.666 3.75,18.333l-0,1.667l1.666,-0Zm-16.666,-11.25c-0.417,-4.167 -2.084,-7.5 -5,-10c-2.5,-2.5 -5.834,-3.75 -10,-3.75c-4.167,-0 -7.5,1.25 -10.834,3.75c-2.916,2.5 -5,5.833 -5.833,10l31.667,-0Z" style="fill:#fff;fill-rule:nonzero;"/><path d="M1099.17,545.417c1.25,0.833 3.333,1.666 6.25,1.666l-0,14.584l-1.25,-0c-12.084,-0 -19.167,-3.334 -20.834,-10c-2.916,3.333 -5.833,5.833 -10,7.916c-3.75,1.667 -8.333,2.5 -12.916,2.5c-6.25,0 -11.667,-1.25 -16.667,-4.166c-5,-2.917 -8.75,-7.084 -11.667,-12.084c-2.916,-5 -4.166,-10.833 -4.166,-17.083c-0,-6.25 1.25,-12.083 4.166,-17.5c2.917,-5 6.667,-9.167 11.667,-12.083c5,-2.917 10.417,-4.167 16.667,-4.167c8.333,-0 15,2.5 20.416,7.917l0,-6.667l16.25,-0l0,44.167c0,2.083 0.834,3.75 2.084,5Zm-18.334,-25.834c-1.666,-2.916 -4.166,-5.416 -7.083,-7.083c-2.917,-1.667 -6.667,-2.5 -10.833,-2.5c-5.417,-0 -9.584,1.667 -12.917,5c-3.333,3.333 -5,7.917 -5,13.333c0,5.417 1.667,10 5,13.334c3.333,3.333 7.5,5 12.917,5c3.75,-0 7.083,-0.834 10.416,-2.5c3.334,-1.667 5.834,-4.167 7.084,-7.084l-0,-17.5l0.416,0Z" style="fill:#fff;fill-rule:nonzero;"/><path d="M1155,496.25l0,15.833l-5.833,0c-4.167,0 -7.084,0.834 -9.584,2.084c-2.5,1.25 -4.166,3.333 -5.833,6.666l0,40l-16.25,0l0,-64.583l16.25,0l0,10.417c1.667,-3.75 4.167,-6.667 7.083,-7.917c2.917,-1.667 6.25,-2.5 10,-2.5l4.167,0Z" style="fill:#fff;fill-rule:nonzero;"/><path d="M1182.5,555.417c-4.167,-4.167 -6.667,-10.417 -6.667,-19.167l0,-25.833l-13.333,-0l0,-13.75l13.333,-0l0,-19.584l16.25,0l0,19.584l18.75,-0l0,13.75l-18.75,-0l0,23.75c0,4.583 0.834,7.916 2.917,10c1.667,2.083 4.583,2.916 7.917,2.916l7.916,0l0,14.584l-8.75,-0c-8.333,-0.417 -15,-2.084 -19.583,-6.25Z" style="fill:#fff;fill-rule:nonzero;"/><path d="M921.667,662.083l-34.584,0l-7.5,22.084l-17.916,-0l33.333,-90.417l19.167,0l33.333,90.417l-18.333,-0l-7.5,-22.084Zm-5,-14.166l-12.5,-35.417l-12.5,35.417l25,-0Z" style="fill:#fff;fill-rule:nonzero;"/><path d="M963.75,682.5c-4.167,-1.667 -7.917,-4.583 -11.667,-8.333l9.167,-10c2.083,2.5 4.583,4.583 7.917,5.833c2.916,1.25 6.25,2.083 9.583,2.083c3.333,0 5.833,-0.416 7.5,-1.666c1.667,-1.25 2.5,-2.5 2.5,-4.584c0,-2.083 -0.833,-3.75 -2.917,-5c-2.083,-1.25 -5.416,-2.5 -10.833,-4.166c-6.25,-2.084 -11.25,-4.584 -14.583,-7.5c-3.334,-2.917 -5,-7.084 -5,-12.917c-0,-5.833 2.083,-10.417 6.666,-13.75c4.584,-3.333 10.417,-5 17.917,-5c5,0 9.583,0.833 13.75,2.5c3.75,1.667 7.083,3.75 9.583,6.667l-10.416,9.583c-0.834,-1.667 -2.5,-3.333 -5,-4.583c-2.5,-1.25 -5,-1.667 -7.917,-1.667c-2.917,0 -5,0.417 -6.25,1.25c-1.667,0.833 -2.083,2.5 -2.083,4.167c-0,1.25 0.416,2.5 1.25,3.333c0.833,0.833 2.5,1.667 4.166,2.5c2.084,0.833 5,2.083 9.167,3.333c6.25,2.084 10.833,4.584 13.75,7.5c3.333,2.917 4.583,7.084 4.583,12.5c0,5.834 -2.5,10.834 -7.083,14.584c-4.583,3.75 -11.25,5.833 -19.167,5.833c-5.416,0 -10.416,-0.833 -14.583,-2.5Z" style="fill:#fff;fill-rule:nonzero;"/><path d="M1023.75,682.5c-4.167,-1.667 -7.917,-4.583 -11.667,-8.333l9.167,-10c2.083,2.5 4.583,4.583 7.917,5.833c2.916,1.25 6.25,2.083 9.583,2.083c3.333,0 5.833,-0.416 7.5,-1.666c1.667,-1.25 2.5,-2.5 2.5,-4.584c0,-2.083 -0.833,-3.75 -2.917,-5c-2.083,-1.25 -5.416,-2.5 -10.833,-4.166c-6.25,-2.084 -11.25,-4.584 -14.583,-7.5c-3.334,-2.917 -5,-7.084 -5,-12.917c-0,-5.833 2.083,-10.417 6.666,-13.75c4.584,-3.333 10.417,-5 17.917,-5c5,0 9.583,0.833 13.75,2.5c3.75,1.667 7.083,3.75 9.583,6.667l-10.416,9.583c-0.834,-1.667 -2.5,-3.333 -5,-4.583c-2.5,-1.25 -5,-1.667 -7.917,-1.667c-2.917,0 -5,0.417 -6.25,1.25c-1.667,0.833 -2.083,2.5 -2.083,4.167c-0,1.25 0.416,2.5 1.25,3.333c0.833,0.833 2.5,1.667 4.166,2.5c2.084,0.833 5,2.083 9.167,3.333c6.25,2.084 10.833,4.584 13.75,7.5c3.333,2.917 4.583,7.084 4.583,12.5c0,5.834 -2.5,10.834 -7.083,14.584c-4.583,3.75 -11.25,5.833 -19.167,5.833c-5.416,0 -10.416,-0.833 -14.583,-2.5Z" style="fill:#fff;fill-rule:nonzero;"/><path d="M1089.58,680.833c-5.416,-2.916 -9.583,-7.083 -12.5,-12.083c-2.916,-5 -4.583,-10.833 -4.583,-17.083c0,-6.25 1.667,-12.084 4.583,-17.5c2.917,-5 7.084,-9.167 12.5,-12.084c5.417,-2.916 11.25,-4.166 18.334,-4.166c6.666,-0 12.916,1.25 18.333,4.166c5.417,2.917 9.583,6.667 12.5,12.084c2.917,5 4.583,10.833 4.583,17.5c0,6.25 -1.666,12.083 -4.583,17.083c-2.917,5 -7.083,9.167 -12.5,12.083c-5.417,2.917 -11.25,4.167 -18.333,4.167c-7.084,0 -12.917,-1.25 -18.334,-4.167Zm31.25,-15.833c3.334,-3.333 5,-7.917 5,-13.333c0,-5.417 -1.666,-10 -5,-13.334c-3.333,-3.333 -7.5,-5 -12.916,-5c-5.417,0 -10,1.667 -13.334,5c-3.333,3.334 -5,7.917 -5,13.334c0,5.416 1.667,10 5,13.333c3.334,3.333 7.917,5 12.917,5c5.417,0 10,-1.667 13.333,-5Z" style="fill:#fff;fill-rule:nonzero;"/><path d="M1166.67,680.833c-5.417,-2.916 -9.167,-6.666 -12.084,-11.666c-2.916,-5 -4.583,-10.834 -4.583,-17.084c0,-6.666 1.667,-12.5 4.583,-17.5c2.917,-5 7.084,-9.166 12.084,-12.083c5.416,-2.917 11.25,-4.167 17.5,-4.167c8.333,0 15.833,2.084 22.5,6.667l-6.667,12.917c-4.167,-2.917 -9.167,-4.584 -14.583,-4.584c-5.834,0 -10,1.667 -13.75,5c-3.334,3.334 -5,7.917 -5,13.75c-0,5.417 1.666,10 5,13.75c3.333,3.334 7.916,5 13.333,5c5.417,0 10.417,-1.666 15,-4.583l6.25,12.5c-3.75,2.5 -7.083,4.167 -10.417,5c-3.333,0.833 -7.5,1.667 -12.5,1.667c-5.416,-0.417 -11.25,-1.667 -16.666,-4.584Z" style="fill:#fff;fill-rule:nonzero;"/><path d="M1222.5,607.083c-2.083,-2.083 -2.917,-4.166 -2.917,-7.083c0,-2.917 0.834,-5 2.917,-7.083c2.083,-2.084 4.167,-2.917 7.083,-2.917c2.917,0 5,0.833 7.084,2.917c2.083,2.083 2.916,4.166 2.916,7.083c0,2.917 -0.833,5 -2.916,7.083c-2.084,2.084 -4.167,2.917 -7.084,2.917c-2.916,-0.417 -5,-1.25 -7.083,-2.917Zm-1.25,12.5l16.25,0l0,64.584l-16.25,-0l0,-64.584Z" style="fill:#fff;fill-rule:nonzero;"/><path d="M1320,668.333c1.25,0.834 3.333,1.667 6.25,1.667l0,14.583l-1.25,0c-12.083,0 -19.167,-3.333 -20.833,-10c-2.917,3.334 -5.834,5.834 -10,7.917c-3.75,1.667 -8.334,2.5 -12.917,2.5c-6.25,0 -11.667,-1.25 -16.667,-4.167c-5,-2.916 -8.75,-7.083 -11.666,-12.083c-2.917,-5 -4.167,-10.833 -4.167,-17.083c-0,-6.25 1.25,-12.084 4.167,-17.5c2.916,-5 6.666,-9.167 11.666,-12.084c5,-2.916 10.417,-4.166 16.667,-4.166c8.333,-0 15,2.5 20.417,7.916l-0,-6.25l16.25,0l-0,43.75c-0,2.5 0.833,4.167 2.083,5Zm-18.333,-25.833c-1.667,-2.917 -4.167,-5.417 -7.084,-7.083c-2.916,-1.667 -6.666,-2.5 -10.833,-2.5c-5.417,-0 -9.583,1.666 -12.917,5c-3.333,3.333 -5,7.916 -5,13.333c0,5.417 1.667,10 5,13.333c3.334,3.334 7.5,5 12.917,5c3.75,0 7.083,-0.833 10.417,-2.5c3.333,-1.666 5.833,-4.166 7.083,-7.083l0,-17.5l0.417,-0Z" style="fill:#fff;fill-rule:nonzero;"/><path d="M1348.33,678.333c-4.166,-4.166 -6.666,-10.416 -6.666,-19.166l-0,-25.834l-13.334,0l0,-13.75l13.334,0l-0,-19.583l16.25,0l-0,19.583l18.75,0l-0,13.75l-18.334,0l0,23.75c0,4.584 0.834,7.917 2.917,10c1.667,2.084 4.583,2.917 7.917,2.917l7.916,0l0,14.583l-8.75,0c-8.75,0 -15.416,-2.083 -20,-6.25Z" style="fill:#fff;fill-rule:nonzero;"/><path d="M1392.92,607.083c-2.084,-2.083 -2.917,-4.166 -2.917,-7.083c0,-2.917 0.833,-5 2.917,-7.083c2.083,-2.084 4.166,-2.917 7.083,-2.917c2.917,0 5,0.833 7.083,2.917c2.084,2.083 2.917,4.166 2.917,7.083c0,2.917 -0.833,5 -2.917,7.083c-2.083,2.084 -4.166,2.917 -7.083,2.917c-2.5,-0.417 -5,-1.25 -7.083,-2.917Zm-1.25,12.5l16.25,0l-0,64.584l-16.25,-0l-0,-64.584Z" style="fill:#fff;fill-rule:nonzero;"/><path d="M1437.08,680.833c-5.416,-2.916 -9.583,-7.083 -12.5,-12.083c-2.916,-5 -4.583,-10.833 -4.583,-17.083c0,-6.25 1.667,-12.084 4.583,-17.5c2.917,-5 7.084,-9.167 12.5,-12.084c5.417,-2.916 11.25,-4.166 18.334,-4.166c6.666,-0 12.916,1.25 18.333,4.166c5.417,2.917 9.583,6.667 12.5,12.084c2.917,5 4.583,10.833 4.583,17.5c0,6.25 -1.666,12.083 -4.583,17.083c-2.917,5 -7.083,9.167 -12.5,12.083c-5.417,2.917 -11.25,4.167 -18.333,4.167c-7.084,0 -12.917,-1.25 -18.334,-4.167Zm31.25,-15.833c3.334,-3.333 5,-7.917 5,-13.333c0,-5.417 -1.666,-10 -5,-13.334c-3.333,-3.333 -7.5,-5 -12.916,-5c-5.417,0 -10,1.667 -13.334,5c-3.333,3.334 -5,7.917 -5,13.334c0,5.416 1.667,10 5,13.333c3.334,3.333 7.917,5 12.917,5c5.833,0 10,-1.667 13.333,-5Z" style="fill:#fff;fill-rule:nonzero;"/><path d="M1557.5,625c4.167,4.583 6.25,11.25 6.25,20.417l0,38.75l-16.25,-0l0,-36.25c0,-4.584 -1.25,-8.334 -3.333,-10.834c-2.5,-2.5 -5.834,-3.75 -10,-3.75c-6.667,0 -12.5,2.917 -17.084,9.167l0,41.667l-16.25,-0l0,-64.584l16.25,0l0,8.75c5.417,-6.666 12.917,-10 22.084,-10c7.916,-0.416 13.75,2.084 18.333,6.667Z" style="fill:#fff;fill-rule:nonzero;"/></g><g><g><g><path d="M533.333,169.167c-24.583,15 -44.166,50.833 -35,87.083c33.334,-49.167 135,-5 168.75,-117.917c-22.5,17.917 -52.083,23.334 -66.666,21.667c55.416,-22.917 87.083,-104.167 37.5,-160c14.583,65.417 -68.75,71.25 -134.584,83.75c-122.916,23.333 -143.333,137.083 -87.5,195.417c-6.25,-69.584 48.75,-110.834 117.5,-110Z" style="fill:#c10e21;fill-rule:nonzero;"/></g></g><path d="M461.25,325.417c-66.25,8.75 -117.5,38.75 -115,56.25l19.583,52.5l1.25,-0c-0.416,-1.25 -0.833,-2.084 -0.833,-3.334c-2.917,-21.666 42.917,-45.416 102.083,-52.916c59.167,-7.917 109.584,3.333 112.5,25l0,3.333l0.417,-0l5.833,-55.833c-2.5,-17.917 -59.583,-33.75 -125.833,-25Z" style="fill:#fff;fill-rule:nonzero;"/><path d="M660.417,275c-66.667,-30.833 -144.584,-8.75 -186.25,48.75c56.666,-5 104.166,7.917 111.666,22.917c0.417,0.833 0.834,2.083 0.834,2.916l-5.834,55.834l-0.416,-0l-0,-3.334c-2.917,-21.666 -53.334,-32.5 -112.5,-25c-59.167,7.917 -105,31.667 -102.084,52.917c0,1.25 0.417,2.083 0.834,3.333l-1.25,0l-19.584,-52.5c-2.083,-16.25 42.084,-43.333 101.667,-54.166c-40.833,-60.417 -120.417,-83.75 -188.333,-52.5c-80.834,37.5 -119.167,132.916 -55.417,245.833c45.417,80 116.25,140.833 256.25,249.167c10.833,-8.334 21.667,-16.667 31.667,-24.584c-30.834,-182.5 -74.167,-309.166 -74.584,-309.166c-1.666,-11.667 22.917,-24.167 55,-28.334c31.667,-4.166 58.75,1.667 60.417,13.334c0,-0 -0.833,7.916 -1.667,22.5c-2.5,40 -5.416,132.5 5.417,266.666c91.25,-73.333 143.75,-125 180,-189.166c5,-8.75 9.167,-17.5 12.917,-26.25c43.75,-100.834 5.416,-184.584 -68.75,-219.167Z" style="fill:#c10e21;fill-rule:nonzero;"/><path d="M585.833,346.667c0.417,0.833 0.834,2.083 0.834,2.916l-5.834,55.834l-0.416,-0c-1.25,13.333 -20.834,27.5 -49.584,37.5c-2.5,40 -5.416,132.5 5.417,266.666c91.25,-73.333 143.75,-125 180,-189.166c5,-8.75 9.167,-17.5 12.917,-26.25l-143.334,-147.5Z" style="fill:url(#_Linear1);fill-rule:nonzero;"/></g></g></g><defs><linearGradient id="_Linear1" x1="0" y1="0" x2="1" y2="0" gradientUnits="userSpaceOnUse" gradientTransform="matrix(204.638,0,0,204.638,527.778,528.125)"><stop offset="0" style="stop-color:#7b1416;stop-opacity:1"/><stop offset="1" style="stop-color:#c10e21;stop-opacity:1"/></linearGradient></defs></svg>