<?xml version="1.0" encoding="UTF-8" standalone="no"?><!DOCTYPE svg PUBLIC "-//W3C//DTD SVG 1.1//EN" "http://www.w3.org/Graphics/SVG/1.1/DTD/svg11.dtd"><svg width="100%" height="100%" viewBox="0 0 1559 1371" version="1.1" xmlns="http://www.w3.org/2000/svg" xmlns:xlink="http://www.w3.org/1999/xlink" xml:space="preserve" xmlns:serif="http://www.serif.com/" style="fill-rule:evenodd;clip-rule:evenodd;stroke-linejoin:round;stroke-miterlimit:2;"><g id="g293534"><rect x="234.171" y="0.575" width="896.426" height="879.328" style="fill:#fff;"/><g id="g23279"><path id="path4" d="M1191.5,879.896l244.222,-440.122l-243.286,-439.199l60.821,-0c33.686,-0 73.922,23.99 89.829,52.593l213.344,386.606l-214.279,386.606c-15.908,29.526 -57.079,52.593 -89.829,52.593l-60.822,0l-0,0.923Z" style="fill:#20558a;fill-rule:nonzero;"/><path id="path22970" d="M324.979,0.575c-44.914,-0 -81.4,35.992 -81.4,81.203l-0,716.921c-0,44.289 36.486,81.204 81.4,81.204l896.426,0l244.219,-440.133l-244.219,-439.195l-896.426,-0Zm55.211,243.593l72.994,-0l179.65,289.727l0.932,0l0,-289.727l65.501,-0l-0,393.061l-72.975,0l-178.719,-288.808l-1.883,-0l0,288.808l-65.5,0l0,-393.061Zm387.391,-0l69.247,-0l0,393.061l-69.247,0l0,-393.061Zm137.544,-0l69.247,-0l-0,155.938l179.669,-0l-0,-155.938l68.296,-0l0,393.061l-69.247,0l0,-177.149l-178.718,0l-0,177.149l-69.247,0l-0,-393.061Z" style="fill:#fff;fill-rule:nonzero;"/><path id="path229701" serif:id="path22970" d="M234.171,0.575c-44.915,-0 -81.4,35.992 -81.4,81.203l-0,716.921c-0,44.289 36.485,81.204 81.4,81.204l896.426,0l244.219,-440.133l-244.219,-439.195l-896.426,-0Zm55.211,243.593l72.993,-0l179.651,289.727l0.932,0l0,-289.727l65.501,-0l-0,393.061l-72.975,0l-178.719,-288.808l-1.883,-0l0,288.808l-65.5,0l0,-393.061Zm387.391,-0l69.247,-0l0,393.061l-69.247,0l0,-393.061Zm137.544,-0l69.247,-0l-0,155.938l179.669,-0l-0,-155.938l68.296,-0l0,393.061l-69.247,0l0,-177.149l-178.718,0l-0,177.149l-69.247,0l-0,-393.061Z" style="fill:#616265;fill-rule:nonzero;"/></g><path id="path288731" d="M729.627,1369.31l-0,-61.928l-61.974,0l0,61.928l-24.24,0l0,-139.303l24.24,-0l0,55.464l61.974,0l-0,-55.464l24.24,-0l-0,139.303l-24.24,0Z" style="fill:#fff;fill-rule:nonzero;"/><path id="path288385" d="M177.477,1056.73c-22.445,0 -44.437,7.631 -45.783,33.667l21.988,-0c0.898,-11.222 9.429,-16.158 21.997,-16.158c8.978,-0 20.647,1.795 20.647,13.466c0,13.018 -13.912,11.668 -30.071,14.361c-18.405,2.244 -38.603,6.284 -38.603,31.422c0,19.302 16.605,29.178 34.561,29.178c12.12,-0 26.039,-3.588 35.016,-12.117c1.796,8.978 8.075,12.117 17.053,12.117c3.591,-0 10.78,-1.345 13.922,-2.692l0,-15.264c-2.244,0.449 -4.045,0.447 -5.391,0.447c-4.04,0 -5.384,-2.241 -5.384,-7.627l0.447,-0l0,-51.622c0,-21.098 -20.648,-29.178 -40.399,-29.178l-0,0Zm17.955,52.517l0.447,-0l0,16.158c0,14.364 -15.26,19.305 -25.136,19.305c-8.08,0 -20.647,-3.144 -20.647,-13.019c0,-11.671 8.529,-15.259 17.956,-16.605c9.875,-1.347 20.647,-1.351 27.38,-5.839Z" style="fill:#fff;fill-rule:nonzero;"/><path id="path288387" d="M230.871,1058.98l16.609,-0l0,-30.076l21.995,0l0,30.076l20.2,-0l0,16.608l-20.2,0l0,53.867c0,8.978 0.898,13.915 10.774,13.915c3.142,0 6.284,0 9.426,-0.897l0,17.057c-4.937,0.449 -9.426,1.347 -14.364,1.347c-23.342,0 -27.382,-8.978 -27.831,-25.587l0,-59.702l-16.609,0l0,-16.608Z" style="fill:#fff;fill-rule:nonzero;"/><path id="path288799" d="M392.618,1056.38c-32.32,-0 -50.728,21.99 -50.728,52.963c0,30.974 18.408,53.421 50.728,52.973c32.32,-0 50.719,-21.999 50.719,-52.973c0,-30.973 -18.399,-52.963 -50.719,-52.963Zm0,17.5c19.751,-0 28.722,17.957 28.722,35.463c-0,17.507 -8.971,35.913 -28.722,35.464c-20.2,0 -28.73,-17.957 -28.73,-35.464c-0,-17.506 8.979,-35.463 28.73,-35.463Z" style="fill:#fff;fill-rule:nonzero;"/><path id="path288803" d="M460.233,1058.98l21.098,-0l-0,14.813l0.449,0.449c6.733,-11.222 17.955,-17.956 31.422,-17.956c21.995,0 35.462,11.671 35.462,34.116l-0,69.128l-21.995,0l-0,-62.844c-0.449,-15.711 -6.734,-22.444 -19.752,-22.444c-14.813,-0 -24.239,11.671 -24.239,26.484l-0,59.253l-21.996,0l0,-100.999l-0.449,-0Z" style="fill:#fff;fill-rule:nonzero;"/><path id="path288805" d="M612.248,1056.73c-22.444,0 -44.436,7.631 -45.783,33.667l21.989,-0c0.898,-11.222 9.428,-16.158 21.997,-16.158c8.978,-0 20.647,1.795 20.647,13.466c0,13.018 -13.912,11.668 -30.072,14.361c-18.404,2.244 -38.602,6.284 -38.602,31.422c-0,19.302 16.605,29.178 34.56,29.178c12.12,-0 26.039,-3.588 35.017,-12.117c1.796,8.978 8.075,12.117 17.053,12.117c3.591,-0 10.78,-1.345 13.922,-2.692l0,-15.264c-2.244,0.449 -4.045,0.447 -5.392,0.447c-4.04,0 -5.383,-2.241 -5.383,-7.627l0.447,-0l0,-51.622c0,-21.098 -20.649,-29.178 -40.4,-29.178l0,0Zm17.956,52.516l0.447,0l-0,16.159c-0,14.364 -15.261,19.305 -25.136,19.305c-8.08,0 -20.647,-3.144 -20.647,-13.019c-0,-11.671 8.529,-15.259 17.955,-16.606c9.876,-1.346 20.647,-1.35 27.381,-5.839Z" style="fill:#fff;fill-rule:nonzero;"/><rect id="path288807" x="674.85" y="1020.82" width="21.995" height="139.155" style="fill:#fff;fill-rule:nonzero;"/><rect id="path288809" x="773.647" y="1020.82" width="24.24" height="139.155" style="fill:#fff;fill-rule:nonzero;"/><path id="path288811" d="M821.539,1058.98l21.097,-0l0,14.813l0.449,0.449c6.733,-11.222 17.956,-17.956 31.422,-17.956c21.996,0 35.462,11.671 35.462,34.116l0,69.128l-21.995,0l-0,-62.844c-0.449,-15.711 -6.733,-22.444 -19.751,-22.444c-14.813,-0 -24.24,11.671 -24.24,26.484l-0,59.253l-21.996,0l0,-100.999l-0.448,-0Z" style="fill:#fff;fill-rule:nonzero;"/><path id="path288813" d="M970.05,1057.27c-18.404,0 -42.197,6.735 -42.197,28.731c0,20.2 16.166,26.033 32.325,29.624c16.16,3.592 32.315,4.935 32.764,16.606c0.449,11.222 -13.916,13.019 -22.444,13.019c-12.12,0 -21.545,-4.49 -22.892,-17.508l0,0.456l-21.997,-0c0.449,23.791 19.304,35.008 44.441,35.008c20.649,-0 44.889,-8.973 44.889,-32.764c0,-19.751 -16.156,-25.586 -32.316,-29.177c-16.609,-3.591 -32.772,-5.394 -32.772,-16.167c-0,-8.978 12.118,-10.319 18.402,-10.319c9.876,-0 18.86,3.142 20.656,13.466l23.339,0c-2.694,-22.444 -21.549,-30.975 -42.198,-30.975Z" style="fill:#fff;fill-rule:nonzero;"/><path id="path288815" d="M1018.24,1058.98l16.609,-0l-0,-30.076l21.995,0l0,30.076l20.2,-0l0,16.608l-20.2,0l0,53.867c0,8.978 0.898,13.915 10.774,13.915c3.142,0 6.284,0 9.426,-0.897l0,17.057c-4.938,0.449 -9.426,1.347 -14.364,1.347c-23.342,0 -27.382,-8.978 -27.831,-25.587l-0,-59.702l-16.609,0l-0,-16.608Z" style="fill:#fff;fill-rule:nonzero;"/><path id="path288817" d="M1126.49,1058.98l16.609,-0l-0,-30.076l21.995,0l0,30.076l20.2,-0l0,16.608l-20.2,0l0,53.867c0,8.978 0.898,13.915 10.774,13.915c3.142,0 6.284,0 9.426,-0.897l0,17.057c-4.938,0.449 -9.426,1.347 -14.364,1.347c-23.342,0 -27.382,-8.978 -27.831,-25.587l-0,-59.702l-16.609,0l-0,-16.608Z" style="fill:#fff;fill-rule:nonzero;"/><path id="path288819" d="M1286.77,1159.98l-21.996,0l0,-13.915l-0.449,-0c-5.386,10.324 -17.506,16.609 -28.728,16.609c-26.485,-0 -37.707,-13.467 -37.707,-39.503l0,-64.19l21.996,-0l-0,61.497c-0,17.507 7.182,24.24 19.302,24.24c18.404,0 24.689,-11.671 24.689,-27.382l-0,-58.355l21.995,-0l0,100.999l0.898,0Z" style="fill:#fff;fill-rule:nonzero;"/><path id="path288821" d="M1296.77,1058.98l16.609,-0l-0,-30.076l21.995,0l0,30.076l20.2,-0l0,16.608l-20.2,0l0,53.867c0,8.978 0.898,13.915 10.774,13.915c3.142,0 6.284,0 9.426,-0.897l0,17.057c-4.937,0.449 -9.426,1.347 -14.364,1.347c-23.342,0 -27.382,-8.978 -27.831,-25.587l-0,-59.702l-16.609,0l0,-16.608Z" style="fill:#fff;fill-rule:nonzero;"/><path id="path288823" d="M1412.47,1056.38c-29.627,-0 -48.483,24.235 -48.483,52.963c-0,30.973 17.955,52.972 49.377,52.972c21.996,0 40.407,-12.118 45.345,-34.113l-21.103,-0c-4.04,10.773 -11.671,16.605 -24.689,16.605c-18.404,0 -26.933,-13.914 -26.933,-29.625l74.066,0c3.591,-30.075 -15.709,-58.802 -47.58,-58.802Zm0.447,17.955c14.813,0 24.238,12.562 25.136,26.478l-51.622,-0c0.449,-14.814 11.224,-26.478 26.486,-26.478Z" style="fill:#fff;fill-rule:nonzero;"/><path id="path288829" d="M821.739,1265.62c-29.626,0 -48.483,24.235 -48.483,52.964c0,30.973 17.955,52.972 49.378,52.972c21.995,-0 40.406,-12.118 45.344,-34.114l-21.103,0c-4.04,10.773 -11.671,16.605 -24.689,16.605c-18.404,0 -26.933,-13.913 -26.933,-29.624l74.067,-0c3.591,-30.076 -15.71,-58.803 -47.581,-58.803Zm0.447,17.956c14.814,-0 24.239,12.562 25.136,26.477l-51.622,0c0.449,-14.813 11.224,-26.477 26.486,-26.477Z" style="fill:#fff;fill-rule:nonzero;"/><path id="path288831" d="M927.354,1265.62c-22.444,0 -44.436,7.664 -45.783,33.81l21.988,-0c0.898,-11.27 9.429,-16.227 21.998,-16.227c8.977,0 20.647,1.803 20.647,13.524c-0,13.073 -13.912,11.717 -30.072,14.422c-18.405,2.254 -38.603,6.311 -38.603,31.556c0,19.384 16.605,29.301 34.561,29.301c12.12,0 26.039,-3.602 35.017,-12.167c1.795,9.015 8.074,12.167 17.052,12.167c3.591,0 10.78,-1.35 13.923,-2.703l-0,-15.328c-2.245,0.45 -4.046,0.449 -5.392,0.449c-4.04,-0 -5.383,-2.251 -5.383,-7.66l0.447,-0l-0,-51.842c-0,-21.187 -20.649,-29.302 -40.4,-29.302l-0,0Zm17.955,52.74l0.447,-0l0,16.227c0,14.425 -15.26,19.388 -25.135,19.388c-8.08,-0 -20.648,-3.158 -20.648,-13.075c0,-11.721 8.529,-15.324 17.956,-16.676c9.875,-1.353 20.647,-1.356 27.38,-5.864Z" style="fill:#fff;fill-rule:nonzero;"/><path id="path288974" d="M1097.77,1230.01l0,139.303l21.145,0l0,-59.321c0,-14.829 9.063,-26.506 23.303,-26.506c12.513,0 18.556,6.741 18.987,22.468l0,62.911l21.145,0l0,-69.204c0,-22.468 -12.946,-34.15 -34.09,-34.15c-12.513,0 -23.737,7.189 -28.915,16.176l-0.43,-0l0,-51.677l-21.145,-0Z" style="fill:#fff;fill-rule:nonzero;"/><path id="path289518" d="M1513.29,1057.27c-18.404,0 -42.197,6.735 -42.197,28.731c0,20.2 16.165,26.033 32.325,29.624c16.16,3.592 32.315,4.935 32.764,16.606c0.449,11.222 -13.916,13.019 -22.445,13.019c-12.12,0 -21.544,-4.49 -22.891,-17.508l-0,0.456l-21.997,-0c0.449,23.791 19.304,35.008 44.441,35.008c20.649,-0 44.889,-8.973 44.889,-32.764c-0,-19.751 -16.156,-25.586 -32.316,-29.177c-16.609,-3.592 -32.773,-5.394 -32.773,-16.167c0,-8.978 12.119,-10.32 18.403,-10.32c9.875,0 18.86,3.143 20.656,13.467l23.338,0c-2.693,-22.444 -21.548,-30.975 -42.197,-30.975Z" style="fill:#fff;fill-rule:nonzero;"/><path id="path290609" d="M302.872,1040.87l0,-20.051l21.996,0l-0,20.051l-21.996,0Zm0,119.104l0,-100.999l21.996,-0l-0,100.999l-21.996,0Z" style="fill:#fff;fill-rule:nonzero;"/><path id="path291682" d="M1091.75,1040.87l0,-20.051l21.996,0l-0,20.051l-21.996,0Zm0,119.104l0,-100.999l21.996,-0l-0,100.999l-21.996,0Z" style="fill:#fff;fill-rule:nonzero;"/><path id="path291766" d="M1023.81,1268.31l16.609,-0l-0,-30.076l21.995,0l0,30.076l20.2,-0l0,16.608l-20.2,0l0,53.867c0,8.978 0.898,13.915 10.774,13.915c3.142,0 6.284,0 9.426,-0.897l0,17.057c-4.937,0.449 -9.426,1.347 -14.364,1.347c-23.342,-0 -27.382,-8.978 -27.831,-25.587l-0,-59.702l-16.609,0l0,-16.608Z" style="fill:#fff;fill-rule:nonzero;"/><rect id="path292070" x="988.848" y="1230.01" width="21.995" height="139.155" style="fill:#fff;fill-rule:nonzero;"/><path id="path293099" d="M520.467,1284.92l16.609,0l-0,84.391l21.995,0l0,-84.391l20.2,0l-0,-16.608l-20.2,-0l0,-8.229c0,-8.978 0.898,-13.915 10.773,-13.915c3.143,-0 6.285,-0 9.427,0.897l-0,-17.057c-4.938,-0.449 -9.427,-1.347 -14.364,-1.347c-23.343,0 -27.383,8.978 -27.831,25.587l-0,14.064l-16.609,-0l-0,16.608Z" style="fill:#fff;fill-rule:nonzero;"/><path id="path293650" d="M463.488,1265.62c-32.32,0 -50.728,21.99 -50.728,52.964c0,30.973 18.408,53.421 50.728,52.972c32.32,-0 50.719,-21.999 50.719,-52.972c-0,-30.974 -18.399,-52.964 -50.719,-52.964Zm-0,17.5c19.751,-0 28.722,17.957 28.722,35.464c-0,17.506 -8.971,35.912 -28.722,35.463c-20.2,0 -28.731,-17.957 -28.731,-35.463c0,-17.507 8.98,-35.464 28.731,-35.464Z" style="fill:#fff;fill-rule:nonzero;"/><path id="path297505" d="M88.436,1159.98l-64.149,-100.999l-0,100.999l-24.24,0l-0,-139.155l24.24,0l64.149,101l0,-101l24.24,0l0,139.155l-24.24,0Z" style="fill:#fff;fill-rule:nonzero;"/></g></svg>