<?xml version="1.0" encoding="UTF-8" standalone="no"?>
<!DOCTYPE svg PUBLIC "-//W3C//DTD SVG 1.1//EN" "http://www.w3.org/Graphics/SVG/1.1/DTD/svg11.dtd">
<svg width="100%" height="100%" viewBox="0 0 614 850" version="1.1" xmlns="http://www.w3.org/2000/svg" xmlns:xlink="http://www.w3.org/1999/xlink" xml:space="preserve" xmlns:serif="http://www.serif.com/" style="fill-rule:evenodd;clip-rule:evenodd;stroke-linecap:round;stroke-linejoin:round;stroke-miterlimit:1.5;">
    <g transform="matrix(1.31379,0,0,0.98375,-405.069,-142.386)">
        <rect id="Artboard1" x="308.321" y="144.738" width="466.922" height="863.573" style="fill:none;"/>
        <g id="Artboard11" serif:id="Artboard1">
            <g id="Palm" transform="matrix(0.761155,0,0,1.01652,62.6978,-15.9055)">
                <path d="M510.452,657.023C500.32,657.02 492.105,657.008 492.105,656.983C492.105,634.697 453.519,610.885 436.468,593.833C419.416,576.782 334.786,518.941 334.786,428.893C334.786,338.844 367.651,308.026 406.876,325.244C446.102,342.462 387.245,399.429 446.425,450.574C505.605,501.72 514.718,515.926 499.751,555.221C484.784,594.516 538.725,641.2 548.028,649.471L548.028,656.983C548.047,656.999 540.338,657.012 530.549,657.019" style="fill:rgb(251,255,15);stroke:black;stroke-width:4px;"/>
            </g>
            <g id="TMD" transform="matrix(0.761155,0,0,1.01652,63.5599,-15.9055)">
                <g transform="matrix(1,0,0,1,5.48934,0)">
                    <path d="M513.747,660.292C513.747,654.319 508.899,649.471 502.926,649.471L481.284,649.471C475.312,649.471 470.463,654.319 470.463,660.292L470.463,986.092C470.463,992.065 475.312,996.913 481.284,996.913L502.926,996.913C508.899,996.913 513.747,992.065 513.747,986.092L513.747,660.292Z" style="fill:rgb(227,129,239);stroke:black;stroke-width:4px;"/>
                </g>
                <g transform="matrix(1,0,0,1,48.774,3.20124e-05)">
                    <path d="M513.747,660.292C513.747,654.319 508.899,649.471 502.926,649.471L481.284,649.471C475.312,649.471 470.463,654.319 470.463,660.292L470.463,986.092C470.463,992.065 475.312,996.913 481.284,996.913L502.926,996.913C508.899,996.913 513.747,992.065 513.747,986.092L513.747,660.292Z" style="fill:rgb(227,129,239);stroke:black;stroke-width:4px;"/>
                </g>
            </g>
            <g id="Beta-ball" transform="matrix(0.761155,0,0,1.01652,64.8133,-13.0802)">
                <circle cx="480.881" cy="392.929" r="59.119" style="fill:rgb(255,169,32);stroke:black;stroke-width:4px;"/>
            </g>
            <g id="Thumb" transform="matrix(0.761155,0,0,1.01652,64.3613,-11.6995)">
                <path d="M534.974,612.846C581.106,636.013 614.086,596.436 658.424,501.303C702.762,406.171 717.532,350.919 679.997,322.902C642.462,294.886 606.992,361.276 587.457,376.121C567.922,390.967 510.958,432.73 513.747,508.348C516.537,583.966 488.841,589.678 534.974,612.846Z" style="fill:rgb(44,186,65);stroke:black;stroke-width:4px;"/>
            </g>
            <g id="Knuckle" transform="matrix(0.761155,0,0,1.01652,73.1712,-22.8389)">
                <circle cx="380.353" cy="275.762" r="47.14" style="fill:rgb(231,95,138);stroke:black;stroke-width:4px;"/>
            </g>
            <g id="Finger" transform="matrix(0.761155,0,0,1.01652,62.6978,-15.9055)">
                <path d="M502.951,329.716C548.269,346.65 544.763,362.718 569.671,362.718C594.578,362.718 615.21,331.04 617.207,310.858C619.204,290.677 607.325,279.546 618.39,257.505C629.455,235.464 655.827,235.455 663.643,212.497C671.459,189.538 670.905,176.734 658.288,168.715C645.672,160.695 613.459,173.011 604.708,189.573C595.958,206.134 608.701,225.635 587.225,236.716C565.749,247.796 464.919,235.954 441.407,299.565C408.075,389.745 441.457,306.738 502.951,329.716Z" style="fill:rgb(41,127,255);stroke:black;stroke-width:4px;"/>
            </g>
            <g id="GRIP" transform="matrix(0.761155,0,0,1.01652,64.8431,-17.585)">
                <path d="M738.042,366.935C759.455,365.768 773.755,347.763 766.354,322.902C758.953,298.042 739.354,301.729 720.128,261.968C700.902,222.206 641.512,228.953 626.641,255.787C611.769,282.621 622.505,316.273 627.743,320.189C632.981,324.106 658.191,306.702 674.798,313.948C691.405,321.194 701.847,335.894 705.01,352.714C708.172,369.533 716.629,368.102 738.042,366.935Z" style="fill:rgb(112,223,234);stroke:black;stroke-width:4px;"/>
            </g>
            <g transform="matrix(0.579595,0,0,0.865026,156.999,108.063)">
                <rect x="492.333" y="758.506" width="54.122" height="131.082" style="fill:rgb(227,129,239);"/>
            </g>
            <g transform="matrix(8.67289e-17,-1.89158,1.41639,1.15826e-16,-510.571,2039.94)">
                <g transform="matrix(21.4956,0,0,21.4956,670.35,692.781)">
                </g>
                <text x="619.728px" y="692.781px" style="font-family:'Montserrat-Regular', 'Montserrat';font-size:21.496px;">TMD</text>
            </g>
            <g transform="matrix(1.99586,4.44089e-16,0,2.66545,-918.67,-1349.44)">
                <g transform="matrix(15.2547,0,0,15.2547,668.262,692.781)">
                </g>
                <text x="628.248px" y="692.781px" style="font-family:'Montserrat-Regular', 'Montserrat';font-size:15.255px;">P<tspan x="638.972px " y="692.781px ">a</tspan>lm</text>
            </g>
            <g transform="matrix(1.03361,-2.39088,1.79026,1.38038,-1387.63,1083.18)">
                <g transform="matrix(14.7281,0,0,14.7281,687.671,692.781)">
                </g>
                <text x="633.751px" y="692.781px" style="font-family:'Montserrat-Regular', 'Montserrat';font-size:14.728px;">Thumb</text>
            </g>
            <g transform="matrix(1.41639,-1.12856e-16,8.45052e-17,1.89158,-458.76,-1014.09)">
                <g transform="matrix(21.4956,0,0,21.4956,691.119,692.781)">
                </g>
                <text x="620.871px" y="692.781px" style="font-family:'Montserrat-Regular', 'Montserrat';font-size:21.496px;">Finger</text>
            </g>
            <g transform="matrix(1.12541,1.14853,-0.860004,1.50298,453.463,-1490.56)">
                <g transform="matrix(21.4956,0,0,21.4956,674.012,692.781)">
                </g>
                <text x="619.929px" y="692.781px" style="font-family:'Montserrat-Regular', 'Montserrat';font-size:21.496px;">GRIP</text>
            </g>
            <g transform="matrix(1.41639,-1.12856e-16,8.45052e-17,1.89158,-473.406,-934.554)">
                <text x="631.85px" y="692.781px" style="font-family:'Helvetica';font-size:21.496px;">β</text>
                <g transform="matrix(21.4956,0,0,21.4956,657.793,714.277)">
                </g>
                <text x="619.037px" y="714.277px" style="font-family:'Montserrat-Regular', 'Montserrat';font-size:21.496px;">ball</text>
            </g>
            <g transform="matrix(0.652015,-5.19517e-17,3.89008e-17,0.870762,-54.1094,-339.905)">
                <g transform="matrix(24,0,0,24,687.351,692.781)">
                </g>
                <text x="589.479px" y="692.781px" style="font-family:'Montserrat-Regular', 'Montserrat';font-size:24px;">K<tspan x="606.303px " y="692.781px ">n</tspan>uc<tspan x="651.975px " y="692.781px ">k</tspan>le</text>
            </g>
            <g id="Scissors" transform="matrix(0.461303,-0.654586,0.367014,0.461303,160.09,617.424)">
                <g transform="matrix(0.761155,0,0,1.01652,308.321,144.738)">
                    <path d="M461.212,289.029L462.958,288.766L463.854,294.698C463.854,294.698 481.537,411.819 493.988,494.281L495.234,494.641C515.065,500.378 529.683,511.994 533.192,526.624C536.647,541.028 529.757,559.57 503.662,579.332C501.975,580.61 499.739,580.904 497.779,580.107C495.818,579.309 494.423,577.538 494.107,575.445L482.36,497.645L461.212,289.029ZM495.978,507.461C499.633,531.667 502.667,551.761 504.4,563.243C518.819,550.424 523.853,539.136 521.523,529.423C519.106,519.347 509.065,511.988 495.978,507.461Z"/>
                </g>
                <g transform="matrix(-0.761155,0,0,1.01652,1044.89,144.738)">
                    <path d="M461.212,289.029L462.958,288.766L463.854,294.698C463.854,294.698 481.537,411.819 493.988,494.281L495.234,494.641C515.065,500.378 529.683,511.994 533.192,526.624C536.647,541.028 529.757,559.57 503.662,579.332C501.975,580.61 499.739,580.904 497.779,580.107C495.818,579.309 494.423,577.538 494.107,575.445L482.36,497.645L461.212,289.029ZM495.978,507.461C499.633,531.667 502.667,551.761 504.4,563.243C518.819,550.424 523.853,539.136 521.523,529.423C519.106,519.347 509.065,511.988 495.978,507.461Z"/>
                </g>
            </g>
            <g transform="matrix(0.538218,0.718787,-0.538218,0.718787,606.624,-46.8976)">
                <g transform="matrix(40,0,0,40,493.718,338.397)">
                </g>
                <text x="348.558px" y="338.397px" style="font-family:'Montserrat-Regular', 'Montserrat';font-size:40px;">T<tspan x="370.958px 387.598px " y="338.397px 338.397px ">ry</tspan>psin</text>
            </g>
        </g>
    </g>
</svg>
