<?xml version="1.0" encoding="UTF-8" standalone="no"?>
<!DOCTYPE svg PUBLIC "-//W3C//DTD SVG 1.1//EN" "http://www.w3.org/Graphics/SVG/1.1/DTD/svg11.dtd">
<svg width="100%" height="100%" viewBox="0 0 2000 1100" version="1.1" xmlns="http://www.w3.org/2000/svg" xmlns:xlink="http://www.w3.org/1999/xlink" xml:space="preserve" xmlns:serif="http://www.serif.com/" style="fill-rule:evenodd;clip-rule:evenodd;stroke-linecap:round;stroke-linejoin:round;stroke-miterlimit:1.5;">
    <g transform="matrix(4.28337,0,0,1.27378,-1320.65,-184.364)">
        <rect id="Artboard1" x="308.321" y="144.738" width="466.922" height="863.573" style="fill:none;"/>
        <g id="Artboard11" serif:id="Artboard1">
            <g id="Palm" transform="matrix(0.226112,0,0,0.772309,419.278,131.269)">
                <g id="Palm1" serif:id="Palm" transform="matrix(1.0325,0,0,1.01652,-24.8648,-15.9055)">
                    <path d="M492.105,656.983C492.105,634.697 453.519,610.885 436.468,593.833C419.416,576.782 334.786,518.941 334.786,428.893C334.786,338.844 367.651,308.026 406.876,325.244C446.102,342.462 387.245,399.429 446.425,450.574C505.605,501.72 514.718,515.926 499.751,555.221C484.784,594.516 538.725,641.2 548.028,649.471L548.028,656.983C548.047,656.999 492.105,657.008 492.105,656.983Z" style="fill:rgb(251,255,15);stroke:black;stroke-width:4px;"/>
                </g>
                <g transform="matrix(2.70736,4.44089e-16,0,2.66545,-1356.08,-1349.44)">
                    <g transform="matrix(15.2547,0,0,15.2547,668.262,692.781)">
                    </g>
                    <text x="628.248px" y="692.781px" style="font-family:'Montserrat-Regular', 'Montserrat';font-size:15.255px;">P<tspan x="638.972px " y="692.781px ">a</tspan>lm</text>
                </g>
            </g>
        </g>
    </g>
</svg>
