<?xml version="1.0" encoding="UTF-8" standalone="no"?>
<!DOCTYPE svg PUBLIC "-//W3C//DTD SVG 1.1//EN" "http://www.w3.org/Graphics/SVG/1.1/DTD/svg11.dtd">
<svg width="100%" height="100%" viewBox="0 0 2000 1100" version="1.1" xmlns="http://www.w3.org/2000/svg" xmlns:xlink="http://www.w3.org/1999/xlink" xml:space="preserve" xmlns:serif="http://www.serif.com/" style="fill-rule:evenodd;clip-rule:evenodd;stroke-linecap:round;stroke-linejoin:round;stroke-miterlimit:1.5;">
    <g transform="matrix(4.28337,0,0,1.27378,-1320.65,-184.364)">
        <rect id="Artboard1" x="308.321" y="144.738" width="466.922" height="863.573" style="fill:none;"/>
        <g id="Artboard11" serif:id="Artboard1">
            <g transform="matrix(0.233461,0,0,0.785066,413.92,118.985)">
                <g id="TMD">
                    <g id="TMD1" serif:id="TMD">
                        <g transform="matrix(1,0,0,1,5.48934,0)">
                            <path d="M513.747,660.292C513.747,654.319 508.899,649.471 502.926,649.471L481.284,649.471C475.312,649.471 470.463,654.319 470.463,660.292L470.463,986.092C470.463,992.065 475.312,996.913 481.284,996.913L502.926,996.913C508.899,996.913 513.747,992.065 513.747,986.092L513.747,660.292Z" style="fill:rgb(227,129,239);stroke:black;stroke-width:4px;"/>
                        </g>
                        <g transform="matrix(1,0,0,1,48.774,3.20124e-05)">
                            <path d="M513.747,660.292C513.747,654.319 508.899,649.471 502.926,649.471L481.284,649.471C475.312,649.471 470.463,654.319 470.463,660.292L470.463,986.092C470.463,992.065 475.312,996.913 481.284,996.913L502.926,996.913C508.899,996.913 513.747,992.065 513.747,986.092L513.747,660.292Z" style="fill:rgb(227,129,239);stroke:black;stroke-width:4px;"/>
                        </g>
                    </g>
                </g>
            </g>
        </g>
    </g>
</svg>
