<?xml version="1.0" encoding="UTF-8" standalone="no"?><!DOCTYPE svg PUBLIC "-//W3C//DTD SVG 1.1//EN" "http://www.w3.org/Graphics/SVG/1.1/DTD/svg11.dtd"><svg width="100%" height="100%" viewBox="0 0 943 1770" version="1.1" xmlns="http://www.w3.org/2000/svg" xmlns:xlink="http://www.w3.org/1999/xlink" xml:space="preserve" xmlns:serif="http://www.serif.com/" style="fill-rule:evenodd;clip-rule:evenodd;stroke-linecap:round;stroke-linejoin:round;stroke-miterlimit:1.5;"><rect id="Artboard1" x="0" y="0" width="942.135" height="1769.88" style="fill:none;"/><g id="Artboard11" serif:id="Artboard1"><path id="Palm" d="M391.155,1039.56c-21.108,-0.007 -38.223,-0.032 -38.223,-0.085c0,-46.428 -80.387,-96.037 -115.911,-131.561c-35.524,-35.524 -211.837,-156.026 -211.837,-343.626c-0,-187.601 68.469,-251.806 150.189,-215.935c81.719,35.871 -40.898,154.552 82.393,261.105c123.292,106.554 142.277,136.149 111.096,218.014c-31.182,81.866 81.195,179.123 100.577,196.353l0,15.65c0.038,0.034 -16.022,0.062 -36.416,0.076" style="fill:#c3c3c3;stroke:#000;stroke-width:8.33px;"/><g id="TMD"><path d="M411.816,1046.37c0,-12.443 -10.101,-22.545 -22.544,-22.545l-45.088,0c-12.442,0 -22.544,10.102 -22.544,22.545l0,678.751c0,12.442 10.102,22.544 22.544,22.544l45.088,-0c12.443,-0 22.544,-10.102 22.544,-22.544l0,-678.751Z" style="fill:#fff;stroke:#000;stroke-width:8.33px;"/><path d="M501.993,1046.37c-0,-12.443 -10.102,-22.544 -22.544,-22.544l-45.089,-0c-12.442,-0 -22.544,10.101 -22.544,22.544l0,678.751c0,12.442 10.102,22.544 22.544,22.544l45.089,-0c12.442,-0 22.544,-10.102 22.544,-22.544l-0,-678.751Z" style="fill:url(#_Linear1);stroke:#000;stroke-width:8.33px;"/></g><circle id="Beta-ball" cx="335.34" cy="495.157" r="123.164" style="fill:#c3c3c3;stroke:#000;stroke-width:8.33px;"/><path id="Thumb" d="M446.795,956.146c96.109,48.267 164.817,-34.186 257.188,-232.379c92.371,-198.193 123.142,-313.301 44.944,-371.669c-78.198,-58.368 -152.094,79.944 -192.791,110.873c-40.698,30.929 -159.374,117.935 -153.562,275.473c5.812,157.537 -51.888,169.436 44.221,217.702Z" style="fill:#c3c3c3;stroke:#000;stroke-width:8.33px;"/><circle id="Knuckle" cx="148.782" cy="231.059" r="98.209" style="fill:#c3c3c3;stroke:#000;stroke-width:8.33px;"/><path id="Finger" d="M375.528,357.674c94.412,35.279 87.108,68.752 138.999,68.752c51.892,0 94.874,-65.995 99.035,-108.04c4.16,-42.045 -20.588,-65.234 2.464,-111.153c23.052,-45.918 77.993,-45.936 94.277,-93.766c16.284,-47.831 15.128,-74.505 -11.155,-91.213c-26.284,-16.708 -93.395,8.951 -111.625,43.454c-18.231,34.503 8.318,75.129 -36.424,98.214c-44.741,23.085 -254.805,-1.587 -303.787,130.936c-69.442,187.876 0.104,14.944 128.216,62.816Z" style="fill:#c3c3c3;stroke:#000;stroke-width:8.33px;"/><path id="GRIP" d="M871.173,431.771c44.611,-2.431 74.401,-39.942 58.983,-91.735c-15.419,-51.793 -56.251,-44.111 -96.305,-126.948c-40.054,-82.836 -163.783,-68.779 -194.764,-12.876c-30.982,55.904 -8.617,126.012 2.296,134.172c10.912,8.159 63.433,-28.098 98.032,-13.003c34.598,15.096 56.352,45.721 62.94,80.762c6.589,35.04 24.208,32.059 68.818,29.628Z" style="fill:#c3c3c3;stroke:#000;stroke-width:8.33px;"/><g transform="matrix(83.3333,0,0,83.3333,742.978,1717.4)"></g><text x="546.728px" y="1717.4px" style="font-family:'Montserrat-Regular', 'Montserrat';font-size:83.333px;">TMD</text></g><defs><linearGradient id="_Linear1" x1="0" y1="0" x2="1" y2="0" gradientUnits="userSpaceOnUse" gradientTransform="matrix(4.43224e-14,-723.839,5810.21,3.55773e-13,456.904,1747.67)"><stop offset="0" style="stop-color:#5650c7;stop-opacity:1"/><stop offset="0.5" style="stop-color:#ff636e;stop-opacity:1"/><stop offset="1" style="stop-color:#ff57f7;stop-opacity:1"/></linearGradient></defs></svg>